<svg width="417" height="409" viewBox="0 0 417 409" fill="none" xmlns="http://www.w3.org/2000/svg">
<mask id="mask0_3_169" style="mask-type:alpha" maskUnits="userSpaceOnUse" x="0" y="0" width="417" height="409">
<rect width="417" height="409" fill="#C4C4C4"/>
</mask>
<g mask="url(#mask0_3_169)">
<path d="M0 361H417" stroke="#EBEDF0"/>
<path d="M0 305H417" stroke="#EBEDF0"/>
<path d="M0 249H417" stroke="#EBEDF0"/>
<path d="M0 193H417" stroke="#EBEDF0"/>
<path d="M0 137H417" stroke="#EBEDF0"/>
<path d="M3 29H420" stroke="#EBEDF0"/>
<path d="M0 81H417" stroke="#EBEDF0"/>
<mask id="mask1_3_169" style="mask-type:alpha" maskUnits="userSpaceOnUse" x="-44" y="78" width="461" height="336">
<rect x="-44" y="78" width="461" height="336" fill="#C4C4C4"/>
</mask>
<g mask="url(#mask1_3_169)">
<path opacity="0.1" d="M31.6142 247.886C-5.93639 246.226 -41.6445 324.21 -51.3083 356.727V459.5H432.782V203C387.982 200.5 373.815 144.105 339.474 144.105C305.133 144.105 274.129 225.745 256.642 268.641C242.284 306.832 223.969 314.996 216.606 314.304C182.369 315.964 156.323 230.589 147.579 187.693C139.848 139.539 131.145 129.576 126.871 129.576C119.702 129.545 108.924 143.691 97.88 191.844C86.8357 239.998 69.3489 253.42 61.9861 254.112C51.6875 255.08 39.4373 247.886 31.6142 247.886Z" fill="url(#paint0_linear_3_169)"/>
<path d="M-51.3083 232C9.89464 194.5 10.2765 285.449 52.2845 285.449C94.2925 285.449 82.4538 230.689 130.954 221.844C179.454 213 210.005 320 249.34 320C288.675 320 307.005 177 320.754 177C334.502 177 326.864 249.5 360.852 249.5C394.84 249.5 416.068 201.66 450.214 200" stroke="#DFE0EB" stroke-width="2" stroke-linejoin="round"/>
<path d="M-51.3083 356.727C-41.688 324.21 -6.14035 246.226 31.2415 247.886C39.0293 247.886 51.2245 255.08 61.4768 254.112C68.8065 253.42 86.2147 239.998 97.2094 191.844C108.204 143.691 118.933 129.545 126.07 129.576C130.324 129.576 138.989 139.539 146.685 187.693C155.389 230.589 181.318 315.964 215.402 314.304C222.732 314.996 240.964 306.832 255.257 268.641C272.666 225.745 303.531 144.105 337.717 144.105C371.904 144.105 386.008 200.5 430.606 203" stroke="#3751FF" stroke-width="2" stroke-linejoin="round"/>
<path opacity="0.16" d="M287.344 206C293.396 206 297.948 199.96 297.948 193C297.948 186.04 293.396 180 287.344 180C281.291 180 276.739 186.04 276.739 193C276.739 199.96 281.291 206 287.344 206Z" stroke="#3751FF" stroke-width="2"/>
<g filter="url(#filter0_d_3_169)">
<ellipse cx="287.344" cy="193" rx="5.60243" ry="7" fill="white"/>
<path d="M290.946 193C290.946 196.2 288.941 198 287.344 198C285.747 198 283.741 196.2 283.741 193C283.741 189.8 285.747 188 287.344 188C288.941 188 290.946 189.8 290.946 193Z" stroke="#3751FF" stroke-width="4"/>
</g>
<g filter="url(#filter1_d_3_169)">
<mask id="path-16-outside-1_3_169" maskUnits="userSpaceOnUse" x="260.932" y="131" width="53" height="38" fill="black">
<rect fill="white" x="260.932" y="131" width="53" height="38"/>
<path fill-rule="evenodd" clip-rule="evenodd" d="M265.932 132H308.932C311.141 132 312.932 133.791 312.932 136V158C312.932 160.209 311.141 162 308.932 162L293.932 162L287.193 167.777C287.043 167.905 286.822 167.905 286.672 167.777L279.932 162L265.932 162C263.723 162 261.932 160.209 261.932 158V136C261.932 133.791 263.723 132 265.932 132Z"/>
</mask>
<path fill-rule="evenodd" clip-rule="evenodd" d="M265.932 132H308.932C311.141 132 312.932 133.791 312.932 136V158C312.932 160.209 311.141 162 308.932 162L293.932 162L287.193 167.777C287.043 167.905 286.822 167.905 286.672 167.777L279.932 162L265.932 162C263.723 162 261.932 160.209 261.932 158V136C261.932 133.791 263.723 132 265.932 132Z" fill="white"/>
<path d="M308.932 162V162.5V162ZM293.932 162V161.5H293.747L293.607 161.62L293.932 162ZM287.193 167.777L286.867 167.397L286.867 167.397L287.193 167.777ZM286.672 167.777L286.997 167.397L286.997 167.397L286.672 167.777ZM279.932 162L280.258 161.62L280.117 161.5H279.932V162ZM265.932 162V162.5V162ZM308.932 131.5H265.932V132.5H308.932V131.5ZM313.432 136C313.432 133.515 311.418 131.5 308.932 131.5V132.5C310.865 132.5 312.432 134.067 312.432 136H313.432ZM313.432 158V136H312.432V158H313.432ZM308.932 162.5C311.418 162.5 313.432 160.485 313.432 158H312.432C312.432 159.933 310.865 161.5 308.932 161.5V162.5ZM293.932 162.5L308.932 162.5V161.5L293.932 161.5V162.5ZM293.607 161.62L286.867 167.397L287.518 168.156L294.258 162.38L293.607 161.62ZM286.867 167.397C286.905 167.365 286.96 167.365 286.997 167.397L286.347 168.156C286.684 168.445 287.181 168.445 287.518 168.156L286.867 167.397ZM286.997 167.397L280.258 161.62L279.607 162.38L286.347 168.156L286.997 167.397ZM265.932 162.5L279.932 162.5V161.5L265.932 161.5V162.5ZM261.432 158C261.432 160.485 263.447 162.5 265.932 162.5V161.5C263.999 161.5 262.432 159.933 262.432 158H261.432ZM261.432 136V158H262.432V136H261.432ZM265.932 131.5C263.447 131.5 261.432 133.515 261.432 136H262.432C262.432 134.067 263.999 132.5 265.932 132.5V131.5Z" fill="#DFE0EB" mask="url(#path-16-outside-1_3_169)"/>
</g>
<path d="M282.94 152.126C282.268 152.126 281.624 152.028 281.008 151.832C280.392 151.627 279.878 151.337 279.468 150.964L279.972 149.858C280.429 150.213 280.896 150.474 281.372 150.642C281.848 150.81 282.356 150.894 282.898 150.894C283.588 150.894 284.111 150.749 284.466 150.46C284.83 150.171 285.012 149.755 285.012 149.214C285.012 148.682 284.83 148.281 284.466 148.01C284.111 147.73 283.584 147.59 282.884 147.59H281.358V146.414H282.772C283.369 146.414 283.845 146.265 284.2 145.966C284.554 145.658 284.732 145.243 284.732 144.72C284.732 144.244 284.568 143.88 284.242 143.628C283.915 143.367 283.448 143.236 282.842 143.236C281.815 143.236 280.914 143.595 280.14 144.314L279.65 143.208C280.032 142.825 280.518 142.531 281.106 142.326C281.694 142.111 282.31 142.004 282.954 142.004C283.943 142.004 284.722 142.233 285.292 142.69C285.861 143.138 286.146 143.763 286.146 144.566C286.146 145.173 285.973 145.691 285.628 146.12C285.292 146.549 284.83 146.834 284.242 146.974V146.82C284.942 146.932 285.478 147.212 285.852 147.66C286.234 148.099 286.426 148.649 286.426 149.312C286.426 150.189 286.113 150.88 285.488 151.384C284.872 151.879 284.022 152.126 282.94 152.126ZM291.632 152.126C290.494 152.126 289.607 151.883 288.972 151.398C288.338 150.913 288.02 150.236 288.02 149.368C288.02 148.677 288.23 148.108 288.65 147.66C289.07 147.203 289.621 146.927 290.302 146.834V147.086C289.686 146.955 289.192 146.671 288.818 146.232C288.454 145.793 288.272 145.261 288.272 144.636C288.272 143.815 288.571 143.171 289.168 142.704C289.766 142.237 290.587 142.004 291.632 142.004C292.687 142.004 293.513 142.237 294.11 142.704C294.708 143.171 295.006 143.815 295.006 144.636C295.006 145.261 294.829 145.798 294.474 146.246C294.129 146.685 293.653 146.96 293.046 147.072V146.834C293.718 146.927 294.255 147.203 294.656 147.66C295.058 148.108 295.258 148.677 295.258 149.368C295.258 150.236 294.941 150.913 294.306 151.398C293.672 151.883 292.78 152.126 291.632 152.126ZM291.632 150.978C292.388 150.978 292.953 150.838 293.326 150.558C293.7 150.269 293.886 149.839 293.886 149.27C293.886 148.701 293.7 148.276 293.326 147.996C292.953 147.716 292.388 147.576 291.632 147.576C290.876 147.576 290.312 147.716 289.938 147.996C289.565 148.276 289.378 148.701 289.378 149.27C289.378 149.839 289.565 150.269 289.938 150.558C290.321 150.838 290.886 150.978 291.632 150.978ZM291.632 146.428C292.286 146.428 292.78 146.283 293.116 145.994C293.462 145.695 293.634 145.289 293.634 144.776C293.634 144.272 293.462 143.875 293.116 143.586C292.78 143.297 292.286 143.152 291.632 143.152C290.988 143.152 290.494 143.297 290.148 143.586C289.803 143.875 289.63 144.272 289.63 144.776C289.63 145.289 289.803 145.695 290.148 145.994C290.494 146.283 290.988 146.428 291.632 146.428Z" fill="#252733"/>
</g>
</g>
<defs>
<filter id="filter0_d_3_169" x="279.741" y="185" width="15.2049" height="18" filterUnits="userSpaceOnUse" color-interpolation-filters="sRGB">
<feFlood flood-opacity="0" result="BackgroundImageFix"/>
<feColorMatrix in="SourceAlpha" type="matrix" values="0 0 0 0 0 0 0 0 0 0 0 0 0 0 0 0 0 0 127 0" result="hardAlpha"/>
<feOffset dy="1"/>
<feGaussianBlur stdDeviation="1"/>
<feColorMatrix type="matrix" values="0 0 0 0 0.215686 0 0 0 0 0.317647 0 0 0 0 1 0 0 0 0.2 0"/>
<feBlend mode="normal" in2="BackgroundImageFix" result="effect1_dropShadow_3_169"/>
<feBlend mode="normal" in="SourceGraphic" in2="effect1_dropShadow_3_169" result="shape"/>
</filter>
<filter id="filter1_d_3_169" x="257.432" y="128.5" width="60" height="44.8732" filterUnits="userSpaceOnUse" color-interpolation-filters="sRGB">
<feFlood flood-opacity="0" result="BackgroundImageFix"/>
<feColorMatrix in="SourceAlpha" type="matrix" values="0 0 0 0 0 0 0 0 0 0 0 0 0 0 0 0 0 0 127 0" result="hardAlpha"/>
<feOffset dy="1"/>
<feGaussianBlur stdDeviation="2"/>
<feColorMatrix type="matrix" values="0 0 0 0 0 0 0 0 0 0 0 0 0 0 0 0 0 0 0.08 0"/>
<feBlend mode="normal" in2="BackgroundImageFix" result="effect1_dropShadow_3_169"/>
<feBlend mode="normal" in="SourceGraphic" in2="effect1_dropShadow_3_169" result="shape"/>
</filter>
<linearGradient id="paint0_linear_3_169" x1="-44.3153" y1="303.5" x2="417.082" y2="303.806" gradientUnits="userSpaceOnUse">
<stop stop-color="#3751FF"/>
<stop offset="1" stop-color="#3751FF" stop-opacity="0"/>
</linearGradient>
</defs>
</svg>
